<svg width="151" height="253" viewBox="0 0 151 253" fill="none" xmlns="http://www.w3.org/2000/svg">
<path d="M146.002 13.6508L28.7576 91.5448C28.3726 90.9731 27.9575 90.3986 27.5754 89.7975C27.573 89.7628 27.5763 89.728 27.5852 89.6944C26.757 88.3671 20.2016 77.0128 22.1034 66.1387C23.0487 61.1918 25.4264 56.6214 28.9527 52.973C29.6526 52.2083 30.4451 51.5305 31.3128 50.9544V50.9544L87.9581 13.2675C93.0629 9.00886 99.689 6.91588 106.383 7.44756L145.585 11.1889C145.832 11.2383 146.056 11.3627 146.227 11.5444C146.397 11.7262 146.505 11.9559 146.535 12.2008C146.579 12.4674 146.554 12.7406 146.461 12.9944C146.368 13.2482 146.21 13.4742 146.002 13.6508V13.6508Z" fill="#174642"/>
<path d="M131.364 251.985L131.043 248.046C133.256 224.853 125.82 210.502 125.361 209.597C117.958 197.433 109.067 192.29 102.598 187.022C94.29 180.211 84.0976 174.409 73.7804 168.803C63.4632 163.197 52.8109 157.767 43.5765 151.774C30.4343 144.323 22.7771 136.415 18.3028 129.777C13.8587 123.127 11.8514 115.2 12.6118 107.301L15.5631 76.3771C16.0157 71.7337 17.4375 67.2348 19.7403 63.16C22.043 59.0851 25.1774 55.5215 28.9487 52.6904C29.4237 52.3197 29.893 52.0078 30.3965 51.6547L31.3187 51.0443C30.4549 51.6192 29.6633 52.2917 28.9601 53.0481C25.4349 56.7034 23.0572 61.2779 22.1093 66.2286C20.2076 77.1027 26.778 88.4584 27.5912 89.7843C27.5802 89.8175 27.5768 89.8527 27.5813 89.8874C27.9485 90.4871 28.3635 91.0616 28.7485 91.6333C44.6178 114.977 64.6348 125.669 77.7112 135.238C99.641 151.299 123.785 164.169 132.213 189.893C134.169 195.777 135.339 201.883 135.693 208.057C135.76 210.054 135.784 212.181 135.682 214.371C135.057 226.989 133.615 239.552 131.364 251.985V251.985Z" fill="#174642"/>
</svg>
